<?xml version="1.0" encoding="utf-8"?>
<svg version="1.1" xmlns="http://www.w3.org/2000/svg" viewBox="0 0 480 240" preserveAspectRatio="xMidYMid slice">
<defs>
  <linearGradient id="s_sky" x1="240" y1="91" x2="240" y2="-43" gradientUnits="userSpaceOnUse">
    <stop offset="0%"   stop-color="#F5AB48"/>
    <stop offset="9%"   stop-color="#F5BF5B"/>
    <stop offset="24%"  stop-color="#F5DB75"/>
    <stop offset="37%"  stop-color="#F5ED85"/>
    <stop offset="47%"  stop-color="#F5F38B"/>
    <stop offset="52%"  stop-color="#E9E289"/>
    <stop offset="67%"  stop-color="#CEBB84"/>
    <stop offset="80%"  stop-color="#BB9E81"/>
    <stop offset="91%"  stop-color="#AF8D7F"/>
    <stop offset="100%" stop-color="#AB877E"/>
  </linearGradient>
  <linearGradient id="s_water" x1="244" y1="85" x2="244" y2="160" gradientUnits="userSpaceOnUse">
    <stop offset="0%"   stop-color="#F5F38B"/>
    <stop offset="29%"  stop-color="#D4C385"/>
    <stop offset="52%"  stop-color="#BEA381"/>
    <stop offset="63%"  stop-color="#BF9867"/>
    <stop offset="77%"  stop-color="#BF8B4B"/>
    <stop offset="90%"  stop-color="#C0843A"/>
    <stop offset="100%" stop-color="#C08134"/>
  </linearGradient>
  <radialGradient id="s_cloud" cx="156" cy="72" r="250" gradientUnits="userSpaceOnUse">
    <stop offset="4%"  stop-color="#DBCF7A"/>
    <stop offset="10%" stop-color="#DFCB76"/>
    <stop offset="61%" stop-color="#FCB056"/>
    <stop offset="85%" stop-color="#BEA381"/>
  </radialGradient>
  <radialGradient id="s_sun_glow" cx="154" cy="72" r="45" gradientUnits="userSpaceOnUse">
    <stop offset="0%"   stop-color="#FFFDE7" stop-opacity="0.65"/>
    <stop offset="55%"  stop-color="#F5F38B" stop-opacity="0.3"/>
    <stop offset="100%" stop-color="#F5AB48" stop-opacity="0"/>
  </radialGradient>
  <radialGradient id="s_reflect" cx="154" cy="107" r="55" gradientUnits="userSpaceOnUse">
    <stop offset="0%"   stop-color="#FFFFF0" stop-opacity="0.55"/>
    <stop offset="100%" stop-color="#C08134" stop-opacity="0"/>
  </radialGradient>
</defs>

<!-- ── SKY ── -->
<rect x="-26" y="-44" width="532" height="135" fill="url(#s_sky)"/>

<!-- Sun glow halo -->
<ellipse cx="154" cy="72" rx="42" ry="30" fill="url(#s_sun_glow)"/>
<!-- Sun (white dot como en el original) -->
<ellipse cx="154.4" cy="72.4" rx="5.6" ry="5.5" fill="#F3F7EC"/>

<!-- ── WATER ── -->
<rect x="-18" y="84.8" width="524" height="75.2" fill="url(#s_water)"/>
<!-- Water sun reflection column -->
<ellipse cx="154" cy="110" rx="48" ry="28" fill="url(#s_reflect)"/>
<ellipse cx="154" cy="97"  rx="14" ry="8"  fill="#F7FBBA" opacity="0.4"/>
<!-- Dark reflection patches (original stye) -->
<path d="M208,85c23,1-13,7-6,9 7,2 23,7 6,7 -9,0-25,0-26,2 10,1 8,1 8,6 -2,5 7,2 7,8 0,5-11,6-5,8 3,1 8,1 13,2 19,2 33,5 23,7 -4,1-7,2-6,3 1,1 4,1 6,1 14,2-8,14-72,12 -15,0-31-10-43-11 -22-1-29-3-30-9 -1-5 39-6 36-7 -3-1-25,1-25-4 -0-5 21-4 23-8 2-3-13-4-7-6 6-3 6-5 1-9 -2-1 6-5 6-6 -1-2-11-1-12-3 -2-4 11-3 11-3S194,84 208,85Z" fill="#F6B43C" opacity="0.28"/>
<path d="M153,85c19,0 48-1 45,1 -1,9-32,4-29,8 3,3 20,2 16,6s-21-3-19,0 c3,5 15,4 13,7 -2,2-2,3-13,3 7,1 22,2 18,7s-8,0-13,1c-6,1-10,4-7,6 1,1 4,1 6,2 10,2 21-5 21,2s-4,3-9,5c-2,1-4,2-3,3 0,1 2,1 3,1 7,2 16,2 25,2s18,2 23,5 c-25,0-49,5-73,3 -11-1-22-8-32-9 -11-1-23-2-19-8 4-5 29-2 28-6s-16-1-18-6c-2-4 16-4 16-7 1-3-9,0-12-3 -4-3 4-1 3-5s6-4 21-3c-7-3-26-2-25-6 0-3 17-2 18-4 0-2-18-4-17-6C122,85 153,85 153,85Z" fill="#F3E755" opacity="0.22"/>

<!-- ── SAND / GROUND ── -->
<path d="M506,243H-22V157c0,0,63-1.4,101-1s103,2,124,1.3S294,154,357.5,153s148.5,3.9,148.5,3.9V243Z" fill="#522D1C"/>

<!-- ── CLOUDS ── -->
<!-- Large bank right -->
<g fill="url(#s_cloud)">
  <ellipse cx="400" cy="63" rx="62" ry="12"/>
  <ellipse cx="370" cy="57" rx="44" ry="17"/>
  <ellipse cx="432" cy="59" rx="40" ry="14"/>
  <ellipse cx="450" cy="64" rx="28" ry="10"/>
  <ellipse cx="396" cy="50" rx="30" ry="13"/>
  <ellipse cx="358" cy="61" rx="24" ry="11"/>
  <ellipse cx="375" cy="70" rx="18" ry="8"/>
  <ellipse cx="460" cy="70" rx="16" ry="7"/>
</g>
<!-- Cloud right-center -->
<g fill="url(#s_cloud)" opacity="0.92">
  <ellipse cx="265" cy="71" rx="44" ry="9"/>
  <ellipse cx="243" cy="67" rx="28" ry="12"/>
  <ellipse cx="289" cy="67" rx="30" ry="11"/>
  <ellipse cx="309" cy="73" rx="21" ry="8"/>
</g>
<!-- Small cloud center-left -->
<g fill="url(#s_cloud)" opacity="0.85">
  <ellipse cx="205" cy="69" rx="22" ry="7"/>
  <ellipse cx="189" cy="66" rx="15" ry="9"/>
  <ellipse cx="221" cy="66" rx="15" ry="8"/>
</g>
<!-- Cloud bank left -->
<g fill="url(#s_cloud)" opacity="0.82">
  <ellipse cx="85"  cy="64" rx="38" ry="11"/>
  <ellipse cx="63"  cy="61" rx="27" ry="14"/>
  <ellipse cx="112" cy="61" rx="24" ry="12"/>
  <ellipse cx="46"  cy="66" rx="20" ry="9"/>
  <ellipse cx="28"  cy="70" rx="15" ry="7"/>
</g>
<!-- High wispy clouds right -->
<g fill="url(#s_cloud)" opacity="0.6">
  <ellipse cx="363" cy="30" rx="28" ry="8"/>
  <ellipse cx="343" cy="27" rx="18" ry="9"/>
  <ellipse cx="384" cy="27" rx="22" ry="7"/>
</g>
<!-- Small cloud top-left area -->
<g fill="url(#s_cloud)" opacity="0.55">
  <ellipse cx="131" cy="46" rx="17" ry="7"/>
  <ellipse cx="119" cy="43" rx="12" ry="8"/>
  <ellipse cx="145" cy="43" rx="13" ry="6"/>
</g>
<!-- Tiny cloud far right -->
<g fill="url(#s_cloud)" opacity="0.65">
  <ellipse cx="363" cy="71" rx="10" ry="4"/>
  <ellipse cx="358" cy="69" rx="7"  ry="5"/>
</g>

<!-- ── LEFT TREE SILHOUETTE ── -->
<g fill="#2D0F04">
  <!-- Trunk -->
  <path d="M41-5C41-5 28,46 24,71 17,103 3,167-2,187c-4,13-7,27-7,27h40c0,0,3-101,5-119 3-18 5-56 8-71S64-5 64-5H41Z"/>
  <!-- Fronds cluster 1 (sweeping left-up) -->
  <path d="M24-19C32-8 38,4 43,16 33,8 33-9 23-16 30-4 36,9 41,23 35,10 29-2 22-15 28-1 33,14 39,28 35,22 31,15 28,8 26,4 24,0 22-4 24,0 26,4 30,12 26,9 24,5 21-2 25,7 30,17 34,27 27,16 21,5 15-6 22,6 29,18 31,31 26,21 21,11 16,1 20,10 24,20 28,30 22,22 17,13 12,4 17,13 22,22 26,32 22,28 18,23 14,19 11,15 18,25 23,35 18,27 12,17 7,7 12,17 17,27 20,36 Z"/>
  <!-- Fronds cluster 2 (right side) -->
  <path d="M89,55C82,46 83,27 78-7 83-1 89,5 95,10 89,2 83-6 77-14 75-12 73-10 72-7c-1,5-3,9-4,14-2,7-4,13-6,20-3,5-6,10-9,16-2,5-3,10-6,15-1,3-4,10-5,13l12-29c-1,6 0,12-2,17-1,5-2,9-4,14-1,3-3,6-3,8l4-8c2-5 3-10 4-14 2-8 1,0 1,8 0,3 0,5 0,7l2-7c1-12 3-24 6-35 1-10-1,2 1,13 3-6 3-13 2-20 3,7 5,15 7,23-1-7-2-14-3-21 3,7 5,14 6,21-1-9-2-18-4-27 2,7 4,14 7,20-3-13-7-27-15-36 5,8 9,16 12,24-1-3-2-7-2-10 3,6 6,12 9,18-3-13-8-25-15-36 5,9 10,18 16,27-3-9-7-18-11-26 4,7 9,13 12,20Z"/>
  <!-- Fronds cluster 3 (tall right) -->
  <path d="M98,1C90,7 82,13 75,19c3-1 6-3 9-4 4-2 8-5 12-7-6,6-13,11-19,17 10-6 20-13 29-20-9,8-18,15-28,22 8-4 15-8 22-14 2-2 4-4 7-5-9,9-20,15-29,24 6-6 15-10 22-15 3-3 7-6 11-7-4,5-9,10-14,13-4,3-9,6-13,10-2,2-3,4-5,5 4,0 7-2 10-5-1,1-2,3-3,5 3-4 6-7 10-10 5-3 11-5 15-9-4,4-8,6-13,9-5,3-11,7-13,12 8-8 19-12 27-20 1-1 2-2 2-4 0-1-1-2-1-3Z"/>
  <!-- Shadow on ground -->
  <path d="M40,202c2,0 5,2 5,4 1,1 1,2 2,3 1,0 1,0 2,0 2,0 5-1 7-3 1,4 6,5 10,6 4,0 8,0 11,2 0,0 1,1 1,1 1,2-4,3-4,5 4,1 9,1 13,1-1,2 1,4 3,4s4-1 6-1c3,0 7,1 9,3-4,4-11,1-17,3-1,0-1,1-2,1 0,1 1,2 1,4 0,2-1,3-2,4-4,2-7,5-10,8-1,1-3,3-3,5 0,1 0,1 0,2 0,0-1,1-2,1-3,1-7,1-10,0-3-1-5-4-8-2 2,3-1,8-5,9-4,1-8,0-11-3-3-2-6-5-8-8-9,3-19,5-29,6-4,0-8,0-10,3 0,0-1,1-2,1-1,0-1-1-1-1-1-3-2-5-3-8 0-1 0-2-1-2-2-2-4-1-7-1-5,0-9-5-8-9 1-6 9-10 8-16-1-3-4-6-2-9 0-1 1-1 2-2 5-2 11-2 16,0 1-6 36-7 37-2 2,0 4,1 7-2C38,208 39,202 40,202Z" opacity="0.7"/>
</g>

<!-- ── RIGHT TREE SILHOUETTE ── -->
<g fill="#2D0F04">
  <!-- Trunk -->
  <path d="M417-9c0,0 6,32 7,47s8,87 9,109c1,12 6,41-1,64-5,19-23,33-23,33h86c0,0-16-98-22-130-6-32-16-85-16-85l-5-44L417-9Z"/>
  <!-- Fronds cluster left-down -->
  <path d="M423-15l1,0c-2,0-4,1-6,3-1,1-2,1-3,2-4,1-9,5-9,5s-13,8-21,14-15,19-15,19s7-9 10-11c3-2 2,0-4,5-5,4-6,13-6,13s2-4 5-8c2-2 4-4 6-6 0,0 0,1 0,2-2,2-4,5-5,7-3,5-3,13-3,13 0,0 0-1 1-3 1-4 3-8 6-12 0,3 0,5 0,8-1,6-3,12-2,17 0-4 0-8 2-11 1-2 2-4 2-6 1-2 1-5 1-7 0-1 0-2 0-4 0,8 1,16 3,23-1-9-2-18-1-26 0,0 1-1 1-1-1,8 0,17 3,25 0-6-1-12-1-18 0-3 0-6 0-10 1-1 1-2 2-3 0,4 0,7 1,11 1,4 2,7 2,11 0-7 0-13 0-20 0-3 0-5 1-8 1-1 1-2 2-3 1,3 0,6 0,9-1,7-1,14 0,21 0-3 0-6 0-9 0-8 1-16 2-24-1,10 0,19 2,29-1-10-2-20 1-30 0,5 0,10 0,15 2-6 3-12 4-18 1,10 0,20-2,31-1,7-2,14-6,21 2-3 3-7 5-11 2-7 3-13 5-20 1-5 1-10 1-15 2,15-1,31-7,46 6-8 8-17 9-27 1-8 2-17 2-25 0-1 0-2 0-2 0-1 1-1 1-2 3-3 6-6 9-10C425-15 424-15 423-15Z"/>
  <!-- Fronds cluster right-up -->
  <path d="M486-20c-16,6-30,15-44,25-7,5-14,10-22,15-7,5-15,10-22,17-4,5-9,10-12,15-6,8-11,18-11,28l0,1c1-4 3-9 4-13-2,10-3,21-5,31 5-9 4-21 7-31-2,9-1,19 1,28 2-4 1-8 0-12-1-6 0-12 3-17-1,4-2,9-1,13 1,5 4,14 4,15 0-1-1-14-2-21 2,6 3,12 3,18 0-2 1-5 1-7-1-8-3-16-2-24 0,6 1,13 3,19 0-9-1-17-2-26 1,8 2,16 3,24 0-9 0-19 1-28 1,7 2,13 3,20 0-5 0-10 0-15 2,5 2,10 2,15 0-5-7-22-9-29 1,3 2,6 2,9 0,3 0,6 0,9 0-3 1-6 1-9 1,5 3,10 4,15 0-4-1-8-1-12 1,3 2,6 2,10 0-5-1-10-2-15 2,5 3,10 4,15-1-8-4-21-9-30 6,8 6,19 13,26-3-11-7-21-11-31 1-2 2-3 4-3 0,0 10,26 10,26s-9-25-8-25c4,1 12,22 12,22s-7-23-5-23c2,0 10,20 10,20s-5-17-3-18c0,0 2,8 5,12 1,2-3-12-6-20 4,8 12,23 12,23 0-2-10-22-9-23 1-3 1-4 2-3 3,4 9,20 9,19 0-5-10-26-9-26 3-2 5,13 7,10 1-1-4-10-3-12C478-17 485-15 486-20Z"/>
  <!-- Shadow on ground -->
  <path d="M460,209c2,0 5,2 5,4 1,1 1,2 2,3 1,0 1,0 2,0 2,0 5-1 7-3 1,4 6,5 10,6 4,0 8,0 11,2 0,0 1,1 1,1 1,2-4,3-4,5 4,1 9,1 13,1-1,2 1,4 3,4s4-1 6-1c3,0 7,1 9,3-4,4-11,1-17,3-1,0-1,1-2,1 0,1 1,2 1,4 0,2-1,3-2,4-4,2-7,5-10,8-1,1-3,3-3,5 0,1 0,1 0,2 0,0-1,1-2,1-3,1-7,1-10,0-3-1-5-4-8-2 2,3-1,8-5,9-4,1-8,0-11-3-3-2-6-5-8-8-9,3-19,5-29,6-4,0-8,0-10,3 0,0-1,1-2,1-1,0-1-1-1-1-1-3-2-5-3-8 0-1 0-2-1-2-2-2-4-1-7-1-5,0-9-5-8-9 1-6 9-10 8-16-1-3-4-6-2-9 0-1 1-1 2-2 5-2 11-2 16,0 1-6 36-7 37-2 2,0 4,1 7-2C458,215 459,209 460,209Z" opacity="0.7"/>
</g>
</svg>
